<?xml version="1.0" standalone="no"?>
<svg viewBox="0 0 200 200" xmlns="http://www.w3.org/2000/svg">
  <path fill="#edf4ff" d="M37.4,-54.4C49.2,-50.7,60,-41.5,65.1,-29.9C70.2,-18.2,69.6,-4.1,66,8.3C62.4,20.8,55.7,31.7,48,42.9C40.3,54.1,31.5,65.6,20.3,68.9C9,72.1,-4.6,67.1,-18.2,62.8C-31.9,58.5,-45.6,54.9,-56,46.5C-66.5,38.1,-73.7,24.9,-75.5,11C-77.3,-2.9,-73.7,-17.5,-65.8,-28.2C-58,-38.9,-45.9,-45.7,-34.2,-49.5C-22.5,-53.3,-11.3,-54.1,0.8,-55.3C12.8,-56.6,25.6,-58.2,37.4,-54.4Z" transform="translate(100 100)" />
</svg>
